<?xml version="1.0" standalone="no"?>
<!DOCTYPE svg PUBLIC "-//W3C//DTD SVG 20010904//EN"
 "http://www.w3.org/TR/2001/REC-SVG-20010904/DTD/svg10.dtd">
<svg version="1.0" xmlns="http://www.w3.org/2000/svg"
 width="1536.000000pt" height="1536.000000pt" viewBox="0 0 1536.000000 1536.000000"
 preserveAspectRatio="xMidYMid meet">
<metadata>
Created by potrace 1.16, written by Peter Selinger 2001-2019
</metadata>
<defs>
  <linearGradient id="logoGrad" x1="0%" y1="100%" x2="100%" y2="0%">
    <stop offset="0%" style="stop-color:#00BFDE;stop-opacity:1" />
    <stop offset="100%" style="stop-color:#00E6A0;stop-opacity:1" />
  </linearGradient>
</defs>
<g transform="translate(0.000000,1536.000000) scale(0.100000,-0.100000)"
fill="url(#logoGrad)" stroke="none">
<path d="M11020 11193 c-61 -23 -313 -157 -448 -237 -90 -53 -227 -129 -305
-167 -383 -192 -402 -249 -117 -344 244 -81 258 -143 90 -376 -45 -61 -112
-171 -233 -381 -26 -46 -89 -141 -140 -213 -51 -71 -140 -204 -199 -295 -59
-91 -157 -228 -218 -305 -61 -77 -164 -207 -230 -290 -797 -1005 -1716 -1565
-3039 -1851 -435 -94 -1041 -296 -1235 -413 -44 -26 -133 -76 -196 -110 -520
-282 -934 -785 -1245 -1516 -40 -93 -101 -230 -136 -304 -146 -313 -176 -301
706 -301 843 0 773 -20 867 244 22 61 66 167 98 236 32 69 68 150 80 180 189
483 450 668 1141 809 568 117 945 262 1327 513 357 234 477 325 647 487 61 58
169 161 241 228 72 67 193 193 270 280 76 87 172 194 214 238 42 45 113 132
158 195 45 63 148 201 228 305 80 105 170 231 200 280 29 50 109 171 178 270
69 99 146 220 171 268 26 49 101 175 168 280 66 106 144 242 174 304 58 121
146 281 212 383 23 36 85 152 136 258 146 298 164 304 375 122 58 -50 114 -93
126 -96 78 -20 107 29 100 166 -2 52 -9 244 -15 425 -22 670 -42 769 -151 728z"/>
<path d="M6323 11009 c-53 -15 -92 -75 -183 -285 -48 -109 -138 -311 -199
-449 -62 -137 -131 -295 -153 -350 -22 -55 -87 -203 -145 -330 -58 -126 -138
-306 -178 -400 -86 -203 -236 -549 -385 -885 -60 -135 -147 -333 -193 -440
-47 -107 -111 -249 -142 -315 -31 -66 -90 -201 -132 -300 -41 -98 -110 -257
-154 -351 -43 -95 -98 -223 -123 -286 -24 -62 -73 -176 -109 -254 -139 -296
-88 -333 182 -134 288 212 722 418 1106 526 342 95 328 86 410 281 191 457
182 434 319 783 24 63 73 183 107 265 34 83 83 204 109 270 26 66 87 217 135
335 48 118 103 260 122 315 142 408 184 395 383 -120 133 -343 194 -456 253
-467 78 -15 124 33 184 193 133 357 137 374 102 505 -86 323 0 505 274 585
161 47 158 92 -37 507 -99 213 -188 411 -225 505 -81 203 -132 277 -207 296
-54 14 -1074 14 -1121 0z"/>
<path d="M8988 10884 c-293 -71 -439 -347 -347 -656 36 -120 37 -118 -222
-386 -249 -257 -249 -258 -380 -271 -259 -26 -374 -225 -260 -451 53 -107 53
-111 -38 -351 -167 -444 -182 -468 -317 -505 -295 -82 -414 -386 -248 -631
215 -316 714 -137 714 256 0 81 32 127 132 190 49 31 137 86 195 124 140 89
155 92 279 66 291 -61 451 161 315 436 -62 124 -52 201 94 680 47 154 85 290
101 360 63 268 206 204 323 -144 79 -233 156 -316 220 -236 48 62 39 105 -66
329 -114 243 -117 284 -26 407 274 373 -34 889 -469 783z m-170 -966 c19 -19
15 -59 -18 -176 -16 -59 -41 -162 -55 -229 -45 -214 -156 -574 -186 -604 -96
-96 -249 152 -249 404 0 150 6 161 198 354 87 87 178 182 203 211 46 53 81 66
107 40z m-656 -955 c113 -66 171 -209 138 -338 -42 -167 -64 -196 -202 -275
-40 -23 -110 -64 -155 -91 -186 -111 -211 -70 -117 191 31 85 78 218 105 294
80 226 133 276 231 219z"/>
<path d="M11452 9250 c-126 -45 -195 -104 -270 -230 -85 -141 -55 -133 -475
-134 -420 -1 -457 -10 -457 -113 0 -66 6 -67 440 -73 442 -6 416 0 468 -99 18
-33 62 -99 97 -146 99 -133 96 -180 -29 -516 -35 -96 -74 -209 -86 -253 -69
-248 -101 -286 -279 -330 -74 -18 -124 -38 -179 -71 -97 -57 -115 -57 -240 4
-253 124 -343 193 -381 295 -92 246 -309 318 -481 159 -112 -103 -126 -197
-51 -344 58 -113 59 -131 17 -284 -98 -363 -121 -408 -232 -470 -91 -51 -124
-96 -178 -247 -34 -94 -289 -244 -355 -209 -68 37 -52 78 130 348 76 112 199
312 242 393 70 133 -20 242 -115 138 -71 -79 -233 -306 -277 -390 -174 -328
-206 -359 -376 -369 -524 -30 -635 -720 -141 -879 246 -80 512 89 566 358 32
161 29 156 211 260 168 95 194 102 290 72 185 -59 327 -1 418 170 51 95 76
111 288 179 515 164 501 163 629 51 473 -414 1087 209 683 692 -100 120 -101
104 10 453 44 138 91 291 105 340 66 240 92 273 246 309 257 61 426 302 390
557 -40 278 -364 474 -628 379z m-1377 -1974 c28 -12 75 -39 105 -58 30 -19
97 -56 147 -82 134 -69 176 -128 159 -220 -17 -88 5 -77 -531 -263 -359 -124
-380 -89 -228 371 83 249 190 326 348 252z"/>
<path d="M8250 8079 c-184 -100 -259 -203 -199 -276 61 -73 392 192 351 281
-17 37 -78 36 -152 -5z"/>
<path d="M9630 5988 c-97 -40 -187 -47 -310 -23 -233 45 -339 -20 -390 -241
-28 -120 -67 -187 -162 -280 -156 -153 -157 -146 99 -719 46 -104 116 -266
155 -358 127 -301 55 -277 854 -277 859 0 825 -18 646 347 -54 110 -111 235
-126 279 -15 43 -54 135 -86 204 -154 332 -261 571 -323 720 -161 387 -191
416 -357 348z"/>
</g>
</svg>
